<?xml version="1.0" standalone="no"?>
<!DOCTYPE svg PUBLIC "-//W3C//DTD SVG 1.1//EN" "http://www.w3.org/Graphics/SVG/1.1/DTD/svg11.dtd" >
<svg xmlns="http://www.w3.org/2000/svg" xmlns:xlink="http://www.w3.org/1999/xlink" version="1.1">
<metadata></metadata>
<defs>
<font id="frutiger77_black_condensed" horiz-adv-x="1064" >
<font-face units-per-em="2048" ascent="1638" descent="-410" />
<missing-glyph horiz-adv-x="532" />
<glyph horiz-adv-x="0" />
<glyph horiz-adv-x="0" />
<glyph unicode="&#xd;" horiz-adv-x="512" />
<glyph unicode=" "  horiz-adv-x="532" />
<glyph unicode="&#x09;" horiz-adv-x="532" />
<glyph unicode="&#xa0;" horiz-adv-x="532" />
<glyph unicode="!" horiz-adv-x="794" d="M236 1430h323l-41 -975h-242zM250 0v307h295v-307h-295z" />
<glyph unicode="&#x22;" d="M180 1004v532h258v-532h-258zM627 1004v532h258v-532h-258z" />
<glyph unicode="#" d="M31 408v188h182l33 238h-156v188h182l58 408h188l-57 -408h203l57 408h188l-55 -408h180v-188h-207l-32 -238h180v-188h-207l-57 -408h-189l56 408h-203l-56 -408h-188l55 408h-155zM401 596h203l33 238h-203z" />
<glyph unicode="$" d="M66 1059q0 45 14 108.5t59 123t126 106.5t216 57v174h92v-174q61 -4 102.5 -7t77 -9t72.5 -16.5t88 -26.5l-18 -254q-66 33 -152 59.5t-170 26.5v-353q98 -20 177 -57t134.5 -92t85 -133t29.5 -182q0 -174 -105.5 -294t-320.5 -141v-182h-92v182q-45 2 -97 6.5 t-104.5 11.5t-99.5 17t-82 23l23 272q80 -47 171 -74.5t189 -27.5v397q-49 12 -119.5 38t-137 77t-112.5 134t-46 210zM348 1069q0 -41 14.5 -69.5t35 -49t44 -32t39.5 -19.5v328q-18 -2 -40.5 -8.5t-43 -22.5t-35 -46t-14.5 -81zM573 203q68 16 106 67.5t38 122.5 q0 18 -4 44t-18.5 51.5t-43 49t-78.5 37.5v-372z" />
<glyph unicode="%" horiz-adv-x="1744" d="M94 1038q0 82 14.5 157t49.5 132t94 92t149 35t149.5 -35t94.5 -92t49.5 -132t14.5 -157t-14.5 -156.5t-49.5 -132t-94 -92t-150 -34.5q-90 0 -149 34.5t-94 92t-49.5 132t-14.5 156.5zM307 1038q0 -119 17.5 -185.5t76.5 -66.5t77 67t18 185q0 119 -17.5 185.5 t-77.5 66.5q-59 0 -76.5 -66.5t-17.5 -185.5zM459 -68l647 1565h184l-647 -1565h-184zM1036 391q0 82 14.5 157t49.5 132t94 92t149 35t149.5 -35t94.5 -92t49.5 -132t14.5 -157t-14.5 -156.5t-49.5 -132t-94 -92.5t-150 -35q-90 0 -149 35t-94 92.5t-49.5 132t-14.5 156.5z M1249 391q0 -119 17.5 -185.5t76.5 -66.5t77 66.5t18 185.5t-17.5 185.5t-77.5 66.5q-59 0 -76.5 -66.5t-17.5 -185.5z" />
<glyph unicode="&#x26;" horiz-adv-x="1441" d="M109 410q0 31 5 80t29.5 104t75.5 111.5t143 101.5q-6 6 -31.5 34.5t-53 70.5t-50 95.5t-22.5 110.5q0 37 16.5 93.5t62.5 110.5t131 93t222 39q76 0 149.5 -18.5t131 -57.5t92 -100t34.5 -148q0 -80 -34.5 -144t-79.5 -113.5t-87 -79t-55 -37.5l193 -240q35 53 49 132 t14 143h283q0 -137 -43 -262.5t-129 -229.5l227 -299h-352l-82 111q-61 -74 -155.5 -105t-188.5 -31q-117 0 -209 34t-155.5 92.5t-97 137t-33.5 171.5zM424 412q0 -31 13.5 -67t39 -65.5t62 -50t82.5 -20.5q70 0 110.5 21.5t69.5 56.5l-281 327q-33 -35 -64.5 -78.5 t-31.5 -123.5zM487 1118q0 -27 17.5 -60.5t40 -63t44 -53t27.5 -30.5q63 51 108.5 100.5t45.5 118.5q0 14 -4 36t-18.5 42.5t-42 34.5t-72.5 14q-70 0 -108 -38.5t-38 -100.5z" />
<glyph unicode="'" horiz-adv-x="532" d="M137 1004v532h258v-532h-258z" />
<glyph unicode="(" horiz-adv-x="645" d="M92 631q0 154 24.5 281.5t63.5 238.5t90.5 208t102.5 189h248q-45 -74 -90.5 -173t-82 -217t-59 -251t-22.5 -276t22.5 -276.5t59 -251t81.5 -217t91 -173.5h-248q-51 92 -102.5 189.5t-90.5 208t-63.5 238.5t-24.5 282z" />
<glyph unicode=")" horiz-adv-x="645" d="M25 -287q45 74 90 173.5t81.5 217t59.5 250.5t23 277q0 143 -23 276t-59.5 251t-81.5 217.5t-90 172.5h247q53 -92 103.5 -189t89.5 -208t63.5 -239t24.5 -281q0 -154 -24.5 -282t-63.5 -238.5t-89 -208t-104 -189.5h-247z" />
<glyph unicode="*" horiz-adv-x="1062" d="M145 1169l74 224l246 -131l-45 274h233l-43 -274l238 131l70 -224l-267 -47l197 -196l-197 -135l-116 245l-125 -245l-191 135l191 196z" />
<glyph unicode="+" horiz-adv-x="1228" d="M96 412v213h412v411h213v-411h412v-213h-412v-412h-213v412h-412z" />
<glyph unicode="," horiz-adv-x="532" d="M20 -225l99 532h307l-164 -532h-242z" />
<glyph unicode="-" horiz-adv-x="681" d="M86 463v250h510v-250h-510z" />
<glyph unicode="." horiz-adv-x="532" d="M119 0v307h295v-307h-295z" />
<glyph unicode="/" horiz-adv-x="606" d="M29 -25l336 1479h213l-336 -1479h-213z" />
<glyph unicode="0" d="M61 715q0 150 20.5 284t73 235t143.5 160.5t234 59.5t234.5 -59.5t144 -160.5t73 -235.5t20.5 -283.5q0 -150 -20.5 -284t-73 -235.5t-143.5 -161t-235 -59.5q-143 0 -234 59.5t-143.5 161t-73 235.5t-20.5 284zM377 715q0 -102 6 -194.5t23.5 -161t47 -109.5t78.5 -41 t79 41t47.5 109.5t23.5 160.5t6 195q0 102 -6 194t-23.5 162t-47 110t-79.5 40q-49 0 -78.5 -40t-47 -110t-23.5 -162t-6 -194z" />
<glyph unicode="1" d="M102 1106l402 324h258v-1430h-324v1053l-184 -179z" />
<glyph unicode="2" d="M96 0v250l105 117q53 59 124.5 135t136 159.5t110.5 170t46 165.5q0 86 -53 138.5t-139 52.5q-33 0 -72 -10.5t-76.5 -26.5t-72.5 -35.5t-62 -40.5l-22 297q113 35 212 58.5t210 23.5q84 0 158.5 -28.5t131 -82t89 -127t32.5 -165.5q0 -111 -51 -224.5t-121.5 -215 t-147.5 -183.5t-126 -129l-51 -49h512v-250h-873z" />
<glyph unicode="3" d="M80 37l14 262q59 -20 99 -34.5t72 -23t57.5 -12.5t56.5 -4q74 0 122 20.5t75.5 50.5t39 63.5t11.5 60.5q0 68 -23.5 106.5t-60.5 58t-83 24.5t-89 5h-99v234q47 0 107.5 3t114 19.5t91.5 51t38 100.5q0 47 -17.5 81t-47.5 56.5t-68.5 33.5t-79.5 11q-72 0 -142.5 -23.5 t-138.5 -45.5l-16 254q121 35 217 50t207 15q70 0 142.5 -21.5t131.5 -68.5t97 -120t38 -175q0 -66 -23.5 -116t-62.5 -89t-91 -66.5t-107 -47.5v-5q57 -8 111 -31.5t96 -66.5t68 -106.5t26 -151.5q0 -86 -37 -161.5t-107.5 -131t-175 -88.5t-240.5 -33q-25 0 -69.5 5.5 t-91.5 14.5t-92.5 19.5t-69.5 22.5z" />
<glyph unicode="4" d="M37 276v295l483 859h352v-920h156v-234h-156v-276h-307v276h-528zM258 510h320v584h-5z" />
<glyph unicode="5" d="M94 41l17 254q82 -33 141 -51.5t125 -18.5q70 0 119 22.5t79.5 58.5t45 77t14.5 78q0 76 -31 124t-75 75.5t-93 38t-86 10.5q-53 0 -108.5 -11.5t-116.5 -27.5v760h782v-242h-499v-266q31 4 61.5 6t60.5 2q211 0 326 -122t115 -353q0 -88 -33 -174t-98.5 -154t-165 -110 t-232.5 -42q-68 0 -117 5.5t-87.5 13.5t-72.5 20.5t-71 26.5z" />
<glyph unicode="6" d="M63 662q0 152 28 294t93.5 252.5t173 178t267.5 67.5q86 0 154.5 -15.5t150.5 -41.5l-19 -248q-45 18 -108.5 40.5t-128.5 22.5q-92 0 -149.5 -36.5t-90.5 -97t-46 -135.5t-17 -150h4q35 43 71.5 67.5t70.5 36.5t60.5 15t40.5 3q76 0 146 -31.5t122 -93t83.5 -151.5 t31.5 -207q0 -33 -13 -108.5t-60 -152.5t-136.5 -136.5t-240.5 -59.5q-152 0 -247 63.5t-148.5 164t-73 221.5t-19.5 238zM387 422q0 -14 2 -51t16.5 -74t43 -65.5t83.5 -28.5q49 0 79 27.5t44.5 67.5t18.5 82t4 69q0 25 -4 62.5t-19.5 73.5t-44.5 62.5t-78 26.5 q-55 0 -83.5 -29t-43 -68.5t-16.5 -82.5t-2 -72z" />
<glyph unicode="7" d="M102 1180v250h861v-283l-420 -1147h-353l457 1180h-545z" />
<glyph unicode="8" d="M55 375q0 51 13.5 107.5t44 106.5t83 89t130.5 57v4q-51 14 -94.5 48t-74 80t-48 105t-17.5 122q0 70 27.5 134t83 114.5t138.5 81t191 30.5q123 0 206 -39t132.5 -96t71 -119.5t21.5 -112.5q0 -51 -18.5 -102t-51.5 -95t-76 -77t-92 -49v-4q33 -6 81 -32t93 -72 t78 -115.5t33 -165.5q0 -84 -31 -157t-91.5 -127t-150.5 -85t-211 -31q-135 0 -225 41t-144.5 102.5t-78 131t-23.5 125.5zM371 387q0 -49 16 -84t41 -57.5t54.5 -32.5t54.5 -10q27 0 54 12t51 34.5t38 57.5t14 78q0 59 -17.5 100t-44 70t-58 48.5t-58.5 33.5 q-70 -41 -107.5 -102.5t-37.5 -147.5zM387 1069q0 -72 43 -132t117 -87q57 37 89 88t32 123q0 12 -4.5 39.5t-19.5 55.5t-45 49.5t-79 21.5q-39 0 -64.5 -18.5t-41 -43t-21.5 -51.5t-6 -45z" />
<glyph unicode="9" d="M63 997q0 33 13.5 109t60.5 152.5t136 136t241 59.5t247 -63.5t148.5 -164t72.5 -221t19 -237.5q0 -152 -27.5 -294t-93 -252.5t-173 -178.5t-267.5 -68q-86 0 -154.5 15.5t-150.5 42.5l19 248q45 -18 108.5 -41t128.5 -23q92 0 149.5 37t90.5 97.5t46 135t17 150.5h-4 q-35 -43 -71.5 -67.5t-70.5 -37t-60.5 -15.5t-41.5 -3q-76 0 -145.5 32t-121.5 93t-84 151.5t-32 206.5zM387 981q0 -25 4 -62.5t19.5 -73.5t44 -62.5t77.5 -26.5q55 0 84 28.5t43.5 68.5t16.5 83t2 72q0 16 -2 52t-16.5 72.5t-43 65.5t-84.5 29q-49 0 -78.5 -28t-44 -67.5 t-18.5 -80.5t-4 -70z" />
<glyph unicode=":" horiz-adv-x="532" d="M119 0v307h295v-307h-295zM119 760v307h295v-307h-295z" />
<glyph unicode=";" horiz-adv-x="532" d="M20 -225l99 532h307l-164 -532h-242zM119 760v307h295v-307h-295z" />
<glyph unicode="&#x3c;" horiz-adv-x="1228" d="M96 430v176l1037 447v-205l-762 -330l762 -330v-204z" />
<glyph unicode="=" horiz-adv-x="1228" d="M96 188v213h1037v-213h-1037zM96 635v213h1037v-213h-1037z" />
<glyph unicode="&#x3e;" horiz-adv-x="1228" d="M96 -16v204l762 330l-762 330v205l1037 -447v-176z" />
<glyph unicode="?" horiz-adv-x="948" d="M102 1395q39 16 128 37.5t204 21.5q94 0 177 -20.5t145.5 -64.5t98.5 -113.5t36 -168.5q0 -104 -43 -188t-95.5 -154.5t-95.5 -132t-43 -123.5v-32h-274v69q0 72 34 129.5t73.5 113.5t73.5 116.5t34 138.5q0 92 -52 132t-147 40q-100 0 -156.5 -24.5t-84.5 -41.5zM328 0 v307h295v-307h-295z" />
<glyph unicode="@" horiz-adv-x="1638" d="M80 715q0 154 59.5 288t164 234t248.5 158.5t312 58.5q123 0 247 -35t223.5 -108.5t162 -187t62.5 -271.5t-59.5 -258t-141.5 -158.5t-165 -80t-132 -21.5q-59 0 -93 28.5t-46 71.5h-4q-35 -47 -84.5 -73.5t-116.5 -26.5q-59 0 -114.5 24.5t-97.5 69.5t-67.5 107.5 t-25.5 138.5q0 90 24.5 168t74.5 136t126 92t176 34q53 0 108.5 -23.5t102.5 -79.5l14 82h195l-84 -432q-4 -25 -9 -54.5t-5 -43.5q0 -31 16 -43t39 -12q29 0 64.5 15t66.5 55t52.5 107.5t21.5 170.5q0 129 -49.5 213t-126 133t-171 67.5t-184.5 18.5q-125 0 -230.5 -45 t-181 -123t-117.5 -179.5t-42 -215.5q0 -123 40 -226.5t110.5 -178t168 -116.5t211.5 -42q61 0 125 5t125.5 20.5t117.5 43t105 72.5h174q-115 -168 -281.5 -243t-365.5 -75q-133 0 -266 46.5t-238.5 138.5t-172 231t-66.5 324zM596 692q0 -55 15.5 -92t40 -60.5t55 -32.5 t61.5 -9q84 0 143.5 65.5t59.5 173.5q0 203 -178 203q-82 0 -139.5 -69.5t-57.5 -178.5z" />
<glyph unicode="A" horiz-adv-x="1327" d="M12 0l475 1430h369l459 -1430h-344l-88 319h-449l-98 -319h-324zM496 561h321l-147 594h-4z" />
<glyph unicode="B" horiz-adv-x="1175" d="M135 0v1430h533q113 0 188.5 -34t121.5 -86.5t65.5 -116t19.5 -120.5q0 -86 -28.5 -146.5t-69.5 -99.5t-85 -58t-75 -24v-4q61 -12 113.5 -35.5t90.5 -64.5t60.5 -101.5t22.5 -144.5q0 -135 -57.5 -214t-132.5 -118.5t-148.5 -51t-104.5 -11.5h-514zM459 242h94 q16 0 52 3t72 20.5t63.5 54t27.5 106.5q0 94 -48 141t-132 47h-129v-372zM459 848h82q72 0 111.5 23.5t59 54t23.5 59.5t4 39q0 18 -7 48t-27.5 57.5t-58.5 47t-99 19.5h-88v-348z" />
<glyph unicode="C" horiz-adv-x="1175" d="M94 721q0 197 59.5 336t152.5 227t208 129t223 41q160 0 248 -26.5t129 -43.5l-16 -278q-39 23 -106.5 52.5t-184.5 29.5q-84 0 -152.5 -33t-117 -94.5t-74 -148.5t-25.5 -195q0 -104 29 -190.5t79 -148t118.5 -95t148.5 -33.5q61 0 110.5 10t85 22.5t60.5 24.5t37 19 l12 -299q-43 -14 -132 -33t-226 -19q-147 0 -269 53.5t-210 150.5t-137.5 234.5t-49.5 307.5z" />
<glyph unicode="D" horiz-adv-x="1366" d="M135 0v1430h508q121 0 235.5 -38t205 -124t144.5 -224.5t54 -341.5q0 -184 -56.5 -317t-149.5 -219t-217 -126t-259 -40h-465zM471 250h107q92 0 158.5 33.5t109.5 94t63.5 143.5t20.5 181q0 221 -89 349.5t-284 128.5h-86v-930z" />
<glyph unicode="E" horiz-adv-x="1062" d="M135 0v1430h826v-250h-502v-320h477v-250h-477v-360h526v-250h-850z" />
<glyph unicode="F" horiz-adv-x="985" d="M135 0v1430h793v-250h-469v-332h450v-250h-450v-598h-324z" />
<glyph unicode="G" horiz-adv-x="1366" d="M94 723q0 131 39 262t127 235.5t229.5 169t346.5 64.5q127 0 218 -19.5t156 -37.5l-20 -281q-53 25 -135 52.5t-193 27.5q-133 0 -216 -53t-129 -130t-62.5 -160t-16.5 -144q0 -100 23.5 -186.5t71 -151t118 -101.5t166.5 -37q76 0 117 21v324h-189v241h504v-768 q-57 -27 -178 -51.5t-295 -24.5q-100 0 -219 31t-221.5 114t-172 228.5t-69.5 374.5z" />
<glyph unicode="H" horiz-adv-x="1290" d="M135 0v1430h336v-570h348v570h336v-1430h-336v594h-348v-594h-336z" />
<glyph unicode="I" horiz-adv-x="606" d="M135 0v1430h336v-1430h-336z" />
<glyph unicode="J" horiz-adv-x="796" d="M35 16l12 273q29 -10 55.5 -18.5t61.5 -8.5q92 0 127 57.5t35 147.5v963h336v-963q0 -102 -19.5 -191.5t-66 -156t-124 -105.5t-192.5 -39q-57 0 -121.5 12.5t-103.5 28.5z" />
<glyph unicode="K" horiz-adv-x="1251" d="M135 0v1430h336v-590h4l352 590h377l-442 -670l477 -760h-401l-363 655h-4v-655h-336z" />
<glyph unicode="L" horiz-adv-x="985" d="M135 0v1430h336v-1172h473v-258h-809z" />
<glyph unicode="M" horiz-adv-x="1744" d="M135 0v1430h506l231 -920h5l249 920h484v-1430h-307v1130h-5l-321 -1130h-221l-310 1130h-4v-1130h-307z" />
<glyph unicode="N" horiz-adv-x="1366" d="M129 0v1430h393l416 -992h4v992h295v-1430h-397l-412 1034h-4v-1034h-295z" />
<glyph unicode="O" horiz-adv-x="1402" d="M94 715q0 158 37 293t111.5 234t189.5 155.5t268 56.5q154 0 268.5 -56.5t190.5 -155.5t113 -234.5t37 -292.5q0 -158 -37 -293t-113 -234.5t-190.5 -156t-268.5 -56.5t-268.5 56.5t-189 156t-111.5 234.5t-37 293zM438 715q0 -102 13.5 -193.5t44 -159t81 -106.5 t123.5 -39q74 0 124 39t81 106.5t45.5 158.5t14.5 194q0 102 -14.5 193t-45.5 159t-81 106.5t-124 38.5t-124 -38.5t-80.5 -106.5t-44 -159t-13.5 -193z" />
<glyph unicode="P" horiz-adv-x="1138" d="M135 0v1430h457q229 0 359 -111t130 -344q0 -92 -25.5 -174t-80.5 -143.5t-140 -98.5t-202 -37h-162v-522h-336zM459 772h106q78 0 129 52.5t51 152.5q0 106 -49 154.5t-149 48.5h-88v-408z" />
<glyph unicode="Q" horiz-adv-x="1402" d="M94 715q0 158 37 293t111.5 234t189.5 155.5t268 56.5q154 0 268.5 -56.5t190.5 -155.5t113 -234.5t37 -292.5q0 -111 -19.5 -212.5t-56.5 -188.5t-93.5 -154.5t-129.5 -110.5l280 -330h-372l-183 256h-35q-154 0 -268.5 56.5t-189 156t-111.5 234.5t-37 293zM438 715 q0 -102 13.5 -193.5t44 -159t81 -106.5t123.5 -39q74 0 124 39t81 106.5t45.5 158.5t14.5 194q0 102 -14.5 193t-45.5 159t-81 106.5t-124 38.5t-124 -38.5t-80.5 -106.5t-44 -159t-13.5 -193z" />
<glyph unicode="R" horiz-adv-x="1214" d="M135 0v1430h524q88 0 167 -20.5t139.5 -65t95.5 -115t35 -168.5q0 -23 -5.5 -72t-33 -104.5t-85 -104.5t-161.5 -69v-4q39 -4 67.5 -18.5t51 -42.5t41 -72t39.5 -107l147 -467h-352l-111 383q-20 74 -40.5 113t-45 57t-57.5 21.5t-80 3.5v-578h-336zM459 819h104 q98 0 147.5 55.5t49.5 133.5q0 23 -6 53.5t-25.5 59t-59.5 48t-108 19.5h-102v-369z" />
<glyph unicode="S" horiz-adv-x="1099" d="M96 1047q0 10 3 44.5t18.5 80t46.5 95.5t86 91t139 68.5t203 27.5q98 0 171 -14.5t165 -34.5l-15 -266q-59 31 -137 52t-145 21q-82 0 -136.5 -37.5t-54.5 -117.5q0 -66 42 -104t104.5 -67.5t135.5 -60t135.5 -81t104.5 -129t42 -205.5q0 -100 -38 -181.5t-105.5 -137.5 t-159 -86t-197.5 -30q-131 0 -234.5 22.5t-150.5 37.5l18 278q76 -29 147.5 -58.5t166.5 -29.5q41 0 77.5 10.5t66.5 31t47 53t17 75.5q0 70 -42 110t-104 69.5t-135 59.5t-135.5 79t-104.5 128t-42 206z" />
<glyph unicode="T" horiz-adv-x="1024" d="M33 1171v259h958v-259h-311v-1171h-336v1171h-311z" />
<glyph unicode="U" horiz-adv-x="1290" d="M121 518v912h336v-965q0 -109 43 -170.5t145 -61.5t145.5 61.5t43.5 170.5v965h335v-912q0 -266 -141 -404.5t-383 -138.5t-383 138.5t-141 404.5z" />
<glyph unicode="V" horiz-adv-x="1251" d="M16 1430h361l252 -1043h4l258 1043h344l-432 -1430h-361z" />
<glyph unicode="W" horiz-adv-x="1744" d="M12 1430h324l172 -1016h4l170 1016h393l174 -1016h4l185 1016h295l-281 -1430h-393l-185 1110h-4l-178 -1110h-393z" />
<glyph unicode="X" horiz-adv-x="1251" d="M14 0l414 758l-367 672h377l195 -449l215 449h360l-374 -672l403 -758h-377l-227 512l-258 -512h-361z" />
<glyph unicode="Y" horiz-adv-x="1212" d="M4 1430h385l229 -553l213 553h377l-434 -889v-541h-336v547z" />
<glyph unicode="Z" horiz-adv-x="1062" d="M61 0v274l555 897h-540v259h917v-263l-555 -909h563v-258h-940z" />
<glyph unicode="[" horiz-adv-x="645" d="M147 -287v1835h437v-205h-187v-1425h187v-205h-437z" />
<glyph unicode="\" horiz-adv-x="606" d="M29 1454h213l336 -1479h-213z" />
<glyph unicode="]" horiz-adv-x="645" d="M61 -82h187v1425h-187v205h437v-1835h-437v205z" />
<glyph unicode="^" horiz-adv-x="1228" d="M135 641l381 789h197l381 -789h-213l-267 576l-266 -576h-213z" />
<glyph unicode="_" horiz-adv-x="1024" d="M0 -154h1024v-102h-1024v102z" />
<glyph unicode="`" horiz-adv-x="454" d="M-6 1487h282l111 -299h-188z" />
<glyph unicode="a" horiz-adv-x="1099" d="M70 307q0 90 31.5 150.5t80.5 100.5t109.5 61.5t119 32t108.5 12.5t79 2h98q0 78 -24.5 118.5t-57 60t-65.5 22.5t-51 3q-61 0 -131 -18t-166 -76l-15 240q31 10 73 21.5t87 21.5t93 17t91 7q141 0 230.5 -27.5t140.5 -79.5t70.5 -124t19.5 -162v-389q0 -119 2 -183.5 t6 -117.5h-294l-9 147h-4q-6 -25 -30.5 -53t-63.5 -53t-90 -41t-109 -16q-150 0 -239.5 88t-89.5 235zM365 328q0 -51 18 -80t42 -42t46.5 -15.5t32.5 -2.5t42 5.5t65.5 30t59 77.5t25.5 152v61q-49 0 -106.5 -4t-107.5 -22.5t-83.5 -55.5t-33.5 -104z" />
<glyph unicode="b" horiz-adv-x="1175" d="M104 0q4 37 6.5 87t2.5 153v1296h323v-627h4q29 72 95.5 123t179.5 51q100 0 171.5 -42t117 -112.5t66 -165.5t20.5 -204q0 -127 -25 -233.5t-73 -182t-117.5 -117.5t-159.5 -42q-70 0 -120 19.5t-84 49t-54.5 61t-32.5 56.5h-4q0 -55 -2 -97t-6 -73h-308zM436 532 q0 -45 6.5 -100t24.5 -103t50 -80t81 -32q55 0 87 34t47.5 83t18.5 103t3 95q0 63 -4.5 123t-19.5 106t-47 73.5t-85 27.5q-49 0 -81 -27.5t-49 -73.5t-24.5 -105.5t-7.5 -123.5z" />
<glyph unicode="c" horiz-adv-x="909" d="M70 522q0 123 34.5 226.5t102 177t166 115.5t225.5 42q80 0 134 -16t124 -35l-16 -244q-45 16 -91.5 31t-97.5 15q-92 0 -142 -43t-72.5 -97.5t-26.5 -104.5t-4 -67q0 -84 23.5 -141t61 -92t85 -49.5t92.5 -14.5q51 0 97 15.5t91 31.5l10 -243q-72 -18 -143.5 -31.5 t-149.5 -13.5q-154 0 -252 56t-154 139t-76.5 176.5t-20.5 166.5z" />
<glyph unicode="d" horiz-adv-x="1175" d="M86 559q0 109 20.5 204t65.5 165.5t116.5 112.5t172.5 42q113 0 179.5 -51t94.5 -123h4v627h324v-1296q0 -102 2 -152.5t6 -87.5h-307q-4 31 -6 73t-2 97h-4q-12 -25 -33 -56.5t-54.5 -61t-84 -49t-119.5 -19.5q-90 0 -160 42t-118 117.5t-72.5 182t-24.5 233.5zM422 532 q0 -41 4 -95t19.5 -103t46 -83t86.5 -34q49 0 80.5 32t50 80t24.5 103t6 100q0 63 -7 123t-24.5 106t-49 73.5t-80.5 27.5q-53 0 -85 -27.5t-47.5 -73.5t-19.5 -106t-4 -123z" />
<glyph unicode="e" horiz-adv-x="1099" d="M86 537q0 109 30.5 207t91 173.5t148.5 120.5t203 45q25 0 68 -3t95 -18t105.5 -48t96.5 -95.5t70.5 -157.5t27.5 -235v-77h-629q0 -47 15.5 -91.5t48 -78t83 -54t117.5 -20.5q84 0 163 25.5t138 58.5l7 -244q-78 -29 -166 -45t-172 -16q-141 0 -242.5 41t-168 113.5 t-98.5 174t-32 224.5zM393 625h334q0 51 -7 98t-26.5 84t-52.5 58.5t-82 21.5q-61 0 -95 -33t-49.5 -77t-18.5 -87t-3 -65z" />
<glyph unicode="f" horiz-adv-x="757" d="M18 840v227h187v174q0 63 14 121.5t52 102.5t102.5 70t165.5 26q86 0 135 -10.5t76 -14.5l-9 -225q-37 16 -84 16q-72 0 -100.5 -30.5t-28.5 -114.5v-115h195v-227h-195v-840h-323v840h-187z" />
<glyph unicode="g" horiz-adv-x="1175" d="M86 532q0 256 98.5 403.5t280.5 147.5q70 0 119 -19.5t82.5 -49t54 -61t31.5 -56.5h4l8 170h307q-4 -37 -6 -87t-2 -153v-698q0 -39 -3 -97.5t-18.5 -123t-48 -130t-93 -116.5t-153 -84t-227.5 -33q-115 0 -211 20.5t-174 43.5l10 264q20 -10 55.5 -26.5t79.5 -32 t95 -25.5t106 -10q96 0 149.5 32.5t80 89t32 131t5.5 156.5h-5q-6 -20 -25.5 -53t-53 -62.5t-84 -51t-117.5 -21.5q-70 0 -137.5 26.5t-120.5 89t-86 165t-33 251.5zM422 535q0 -31 4 -83.5t19.5 -102.5t47 -86t85.5 -36q49 0 80.5 27t49 71t24.5 99t7 111q0 47 -6 101 t-24.5 102t-49 80t-79.5 32q-55 0 -87 -34t-47.5 -83t-19.5 -103t-4 -95z" />
<glyph unicode="h" horiz-adv-x="1138" d="M113 0v1536h323v-627h4q29 90 107 132t166 42t148.5 -29.5t97 -81.5t52 -123t15.5 -151v-698h-324v657q0 100 -37.5 134t-86.5 34q-78 0 -110 -61.5t-32 -165.5v-598h-323z" />
<glyph unicode="i" horiz-adv-x="569" d="M123 0v1067h323v-1067h-323zM123 1249v287h323v-287h-323z" />
<glyph unicode="j" horiz-adv-x="569" d="M-51 -424l8 213q20 -10 55 -10q18 0 38 5t36 21.5t26.5 46t10.5 78.5v1137h323v-1128q0 -178 -72.5 -286t-238.5 -108q-66 0 -114 10.5t-72 20.5zM123 1249v287h323v-287h-323z" />
<glyph unicode="k" horiz-adv-x="1099" d="M123 0v1536h323v-901h5l270 432h336l-334 -489l356 -578h-360l-268 506h-5v-506h-323z" />
<glyph unicode="l" horiz-adv-x="569" d="M123 0v1536h323v-1536h-323z" />
<glyph unicode="m" horiz-adv-x="1708" d="M104 1067h295q4 -35 6.5 -80t2.5 -98h4q37 88 104.5 141t196.5 53q117 0 179 -49t97 -129q35 76 100.5 127t192.5 51q88 0 148.5 -29.5t97.5 -81.5t52 -123t15 -151v-698h-323v657q0 92 -35 130t-88 38q-72 0 -102.5 -45t-30.5 -104v-676h-324v657q0 51 -10 84 t-26.5 51.5t-36 25.5t-39.5 7q-80 0 -112 -62.5t-32 -164.5v-598h-323v844q0 78 -2 130t-7 93z" />
<glyph unicode="n" horiz-adv-x="1138" d="M104 1067h295q4 -35 6.5 -80t2.5 -98h4q37 88 104.5 141t196.5 53q88 0 148.5 -29.5t97 -81.5t52 -123t15.5 -151v-698h-324v657q0 100 -37.5 134t-86.5 34q-78 0 -110 -61.5t-32 -165.5v-598h-323v844q0 78 -2 130t-7 93z" />
<glyph unicode="o" horiz-adv-x="1175" d="M86 537q0 121 33 221t95 171.5t156.5 112.5t217.5 41t217 -41t156.5 -112.5t95.5 -172t33 -220.5q0 -121 -33 -222.5t-95.5 -175t-156.5 -114.5t-217 -41t-217.5 41t-156.5 114.5t-95 175t-33 222.5zM422 537q0 -158 40 -245t126 -87t126 87t40 245t-40 241.5t-126 83.5 t-126 -83.5t-40 -241.5z" />
<glyph unicode="p" horiz-adv-x="1175" d="M104 1067h308q4 -31 6 -73t2 -97h4q12 25 32.5 56.5t54.5 61t84 49t120 19.5q90 0 159.5 -42t117.5 -117.5t73 -182t25 -233.5q0 -106 -20.5 -202.5t-66 -167t-117 -112.5t-171.5 -42q-113 0 -179.5 51t-95.5 123h-4v-600h-323v1269q0 102 -2 152.5t-7 87.5zM436 535 q0 -63 7.5 -123t24.5 -106t49 -73.5t81 -27.5q53 0 85 27.5t47 73.5t19.5 106t4.5 123q0 41 -3 95t-18.5 103t-47.5 83t-87 34q-49 0 -81 -32t-50 -80t-24.5 -102t-6.5 -101z" />
<glyph unicode="q" horiz-adv-x="1175" d="M86 508q0 127 24.5 233.5t72.5 182t118 117.5t160 42q70 0 120 -19.5t83.5 -49t54 -61t33.5 -56.5h4q0 55 2 97t6 73h307q-4 -37 -6 -87t-2 -153v-1269h-324v600h-4q-29 -72 -95.5 -123t-178.5 -51q-100 0 -172 42t-117 112.5t-65.5 166.5t-20.5 203zM422 535 q0 -63 4 -123t19.5 -106t47 -73.5t85.5 -27.5q49 0 80.5 27.5t49 73.5t24.5 105.5t7 123.5q0 47 -6 101t-24.5 102t-50 80t-80.5 32q-55 0 -86 -34t-46.5 -83t-19.5 -103t-4 -95z" />
<glyph unicode="r" horiz-adv-x="796" d="M104 1067h295q2 -47 4.5 -96t4.5 -97h4q25 43 48 81t55 67t78 45t116 16h47v-299q-27 6 -50.5 9.5t-58.5 3.5q-70 0 -111.5 -28t-64 -74t-29 -102t-6.5 -116v-477h-323v844q0 78 -2 130t-7 93z" />
<glyph unicode="s" horiz-adv-x="872" d="M59 764q0 43 17.5 98.5t62.5 104.5t123 82.5t197 33.5q100 0 178 -14t119 -29l-8 -241q-66 27 -127.5 42t-133.5 15q-63 0 -91.5 -24.5t-28.5 -53.5q0 -25 10 -42t35.5 -34.5t68.5 -35t109 -41.5q41 -14 81 -37t71.5 -58.5t51 -88t19.5 -128.5q0 -88 -30.5 -151.5 t-85 -102.5t-126 -57t-151.5 -18q-72 0 -168 10t-182 41l8 250q59 -35 128.5 -54.5t137.5 -19.5q57 0 89 9t48.5 23.5t20.5 32t4 35.5q0 35 -59.5 58.5t-163.5 66.5q-43 18 -83 45t-71 66t-50.5 92t-19.5 125z" />
<glyph unicode="t" horiz-adv-x="796" d="M29 840v227h184v219l315 100v-319h209v-227h-209v-490q0 -78 31 -105.5t78 -27.5q35 0 58.5 6t47.5 17v-228q-25 -10 -86 -19t-139 -9q-63 0 -119.5 16t-99.5 53t-68.5 97.5t-25.5 148.5v541h-176z" />
<glyph unicode="u" horiz-adv-x="1138" d="M113 369v698h323v-657q0 -100 38 -134t87 -34q78 0 109.5 61.5t31.5 165.5v598h324v-844q0 -78 2 -130t6 -93h-295q-4 35 -6 80t-2 98h-4q-37 -88 -104.5 -141t-196.5 -53q-88 0 -148.5 30.5t-97.5 83t-52 122t-15 149.5z" />
<glyph unicode="v" horiz-adv-x="1062" d="M8 1067h336l197 -760h4l194 760h316l-334 -1067h-381z" />
<glyph unicode="w" horiz-adv-x="1630" d="M10 1067h324l155 -760h5l151 760h369l145 -760h4l150 760h307l-285 -1067h-344l-174 780h-4l-164 -780h-352z" />
<glyph unicode="x" horiz-adv-x="1062" d="M10 0l334 569l-303 498h360l150 -319l145 319h336l-303 -498l324 -569h-361l-166 358l-180 -358h-336z" />
<glyph unicode="y" horiz-adv-x="1062" d="M10 1067h336l199 -723h4l188 723h316l-377 -1165q-59 -188 -148.5 -272.5t-224.5 -84.5q-43 0 -98 7.5t-96 19.5l10 240q16 -10 41.5 -17.5t60.5 -7.5q41 0 71 20.5t50 51t29.5 68.5t9.5 73z" />
<glyph unicode="z" horiz-adv-x="872" d="M55 0v266l408 559h-395v242h739v-264l-399 -561h409v-242h-762z" />
<glyph unicode="{" horiz-adv-x="681" d="M37 543v176q29 0 59.5 9t55 31.5t41 58.5t16.5 91v363q0 72 25.5 124t68.5 86t96.5 50t108.5 16h154v-164h-93q-68 0 -85 -39.5t-17 -109.5v-354q0 -72 -23.5 -119t-58.5 -75t-75 -39t-72 -15v-4q33 -2 72.5 -12.5t74.5 -38t58.5 -77.5t23.5 -134v-340q0 -72 17.5 -111 t84.5 -39h93v-164h-154q-57 0 -111.5 17.5t-96.5 51.5t-66.5 86t-24.5 122v348q0 59 -16.5 98t-41 62.5t-55 34t-59.5 10.5z" />
<glyph unicode="|" horiz-adv-x="454" d="M121 -512v2048h213v-2048h-213z" />
<glyph unicode="}" horiz-adv-x="681" d="M20 -123h93q68 0 85 39t17 111v340q0 84 23.5 134t58.5 77.5t75 38t72 12.5v4q-33 4 -72.5 15t-74.5 39t-58.5 75t-23.5 119v354q0 70 -17.5 109.5t-84.5 39.5h-93v164h154q55 0 108.5 -16t96.5 -50t68.5 -86.5t25.5 -123.5v-363q0 -55 16.5 -91t41 -58.5t55 -31.5 t59.5 -9v-176q-29 0 -59.5 -10.5t-55 -34t-41 -62.5t-16.5 -98v-348q0 -70 -24.5 -122t-66.5 -86t-95.5 -51.5t-112.5 -17.5h-154v164z" />
<glyph unicode="~" horiz-adv-x="1228" d="M141 516q16 33 39 64.5t53.5 57.5t68.5 42t87 16q78 0 134.5 -21.5t105.5 -47.5q53 -27 105 -50.5t110 -23.5q53 0 94 46t76 99l73 -178q-18 -33 -42.5 -64.5t-54 -57t-63.5 -42t-75 -16.5q-72 0 -128 21.5t-110 50.5q-53 29 -104 50t-119 21q-72 0 -111.5 -46t-64.5 -99 z" />
<glyph unicode="&#xa1;" horiz-adv-x="794" d="M236 -362l40 974h242l41 -974h-323zM250 760v307h295v-307h-295z" />
<glyph unicode="&#xa2;" d="M135 518q0 123 35 227.5t102.5 179t166 116.5t225.5 42h28l35 234h111l-35 -250q29 -8 56.5 -17.5t62.5 -19.5l-17 -246q-33 12 -66.5 23.5t-70.5 17.5l-88 -600q25 -6 53 -6q51 0 97.5 15.5t89.5 31.5l10 -246q-68 -18 -138.5 -30.5t-148.5 -14.5l-37 -251h-110l39 260 q-121 20 -199 81.5t-122 139.5t-61.5 162t-17.5 151zM471 518q0 -94 28.5 -153.5t73.5 -94.5l82 555q-70 -14 -106.5 -59t-54 -95t-20.5 -94.5t-3 -58.5z" />
<glyph unicode="&#xa3;" d="M82 0v242h143v422h-143v184h143v129q0 100 25.5 187t83 151.5t151 101.5t228.5 37q84 0 147.5 -10t116.5 -25l-12 -241q-41 16 -90.5 29.5t-112.5 13.5q-129 0 -179.5 -68t-50.5 -197v-108h312v-184h-312v-422h451v-242h-901z" />
<glyph unicode="&#xa4;" d="M37 332l108 108q-86 129 -86 275q0 143 86 274l-108 109l113 112l108 -108q63 43 133 64.5t141 21.5q143 0 275 -86l108 108l113 -112l-108 -109q86 -127 86 -274q0 -141 -86 -275l108 -108l-113 -113l-108 109q-131 -86 -275 -86q-143 0 -274 86l-108 -109zM272 715 q0 -57 20.5 -107.5t56.5 -88.5t83 -59.5t100 -21.5t101.5 21.5t83.5 59.5t55.5 88t20.5 108q0 57 -20.5 107t-55.5 88t-83 59.5t-102 21.5q-53 0 -100 -21.5t-83 -59.5t-56.5 -88t-20.5 -107z" />
<glyph unicode="&#xa5;" d="M20 1430h308l211 -599h4l194 599h307l-262 -639h189v-213h-277l-14 -37v-99h291v-213h-291v-229h-295v229h-291v213h291v105l-14 31h-277v213h191z" />
<glyph unicode="&#xa6;" horiz-adv-x="454" d="M121 358h213v-716h-213v716zM121 666v716h213v-716h-213z" />
<glyph unicode="&#xa7;" horiz-adv-x="1062" d="M109 610q0 53 19 101.5t47 85.5t58.5 60.5t53.5 29.5q-78 55 -112 114.5t-34 143.5q0 47 20.5 101t66.5 100.5t122 77t189 30.5q51 0 104 -6t99 -15.5t82 -19.5t53 -16l-23 -236q-53 25 -129 48.5t-135 23.5t-100 -26.5t-41 -80.5q0 -20 5 -35.5t22.5 -31t51 -34.5 t90.5 -50q80 -43 142.5 -80t105.5 -78t65.5 -92t22.5 -125q0 -55 -16 -98t-40 -77t-51.5 -60.5t-51.5 -47.5q51 -31 88 -95t37 -142q0 -59 -24 -120.5t-75 -113t-134 -83t-204 -31.5q-92 0 -186 22.5t-174 52.5l24 242q78 -35 148 -62.5t156 -27.5q68 0 110.5 35t42.5 86 t-34.5 84t-94.5 65l-141 78q-43 25 -84 54.5t-73 67.5t-50 83t-18 98zM375 666q0 -70 60.5 -127.5t195.5 -120.5q35 35 46 78t11 59q0 68 -59.5 125t-192.5 121q-41 -41 -51 -78t-10 -57z" />
<glyph unicode="&#xa8;" horiz-adv-x="454" d="M-70 1239v258h242v-258h-242zM283 1239v258h241v-258h-241z" />
<glyph unicode="&#xa9;" horiz-adv-x="1638" d="M80 715q0 154 58.5 288t158.5 234t234.5 158.5t287.5 58.5q154 0 288 -58.5t234.5 -158.5t159 -234.5t58.5 -287.5q0 -154 -58.5 -288t-159 -234.5t-234.5 -159t-288 -58.5t-288 58.5t-234 159t-158.5 234.5t-58.5 288zM293 715q0 -123 41 -226.5t111.5 -178t167 -116.5 t206.5 -42q111 0 206 42t167 116.5t113 178t41 226.5t-41 226t-113 178t-167 117t-206 42t-207 -42t-166.5 -117t-111.5 -178t-41 -226zM438 721q0 94 29 174t81 138.5t126 91t166 32.5q135 0 232 -78t120 -229h-164q-14 72 -67.5 107.5t-120.5 35.5q-106 0 -161.5 -74.5 t-55.5 -195.5q0 -57 15 -107.5t44 -87t69 -58t89 -21.5q78 0 129 37.5t59 109.5h164q-12 -76 -44 -133t-80 -97t-106.5 -60.5t-121.5 -20.5q-88 0 -163 33.5t-127 92t-82 138.5t-30 172z" />
<glyph unicode="&#xaa;" horiz-adv-x="714" d="M51 995q0 78 43 121t101.5 62.5t116 22.5t83.5 3h66q0 43 -15.5 66.5t-36 34t-41 12.5t-32.5 2q-41 0 -86 -11.5t-107 -45.5l-10 153q41 10 103.5 24.5t119.5 14.5q92 0 150.5 -16.5t92.5 -47t46 -74.5t12 -97v-228q0 -72 1 -109.5t6 -70.5h-197l-6 86h-4 q-2 -12 -18.5 -28.5t-42 -31t-58.5 -24.5t-72 -10q-98 0 -156.5 53t-58.5 139zM248 1001q0 -29 11 -44t26.5 -22t31 -8t21.5 -1q68 0 95.5 46t27.5 105v35q-27 0 -64 -3t-70.5 -13.5t-56 -33t-22.5 -61.5z" />
<glyph unicode="&#xab;" d="M74 532l202 424h256l-184 -424l184 -423h-256zM494 532l202 424h256l-184 -424l184 -423h-256z" />
<glyph unicode="&#xac;" horiz-adv-x="1228" d="M96 635v213h1037v-627h-213v414h-824z" />
<glyph unicode="&#xad;" horiz-adv-x="681" d="M86 463v250h510v-250h-510z" />
<glyph unicode="&#xae;" horiz-adv-x="1638" d="M80 715q0 154 58.5 288t158.5 234t234.5 158.5t287.5 58.5q154 0 288 -58.5t234.5 -158.5t159 -234.5t58.5 -287.5q0 -154 -58.5 -288t-159 -234.5t-234.5 -159t-288 -58.5t-288 58.5t-234 159t-158.5 234.5t-58.5 288zM293 715q0 -123 41 -226.5t111.5 -178t167 -116.5 t206.5 -42q111 0 206 42t167 116.5t113 178t41 226.5t-41 226t-113 178t-167 117t-206 42t-207 -42t-166.5 -117t-111.5 -178t-41 -226zM535 324v792h284q143 0 223 -51t80 -186q0 -109 -55 -156t-133 -55l201 -344h-189l-176 335h-72v-335h-163zM698 795h123q61 0 99 17 t38 83q0 29 -14 45t-36.5 25.5t-50.5 12.5t-54 3h-105v-186z" />
<glyph unicode="&#xaf;" horiz-adv-x="454" d="M-74 1251v176h602v-176h-602z" />
<glyph unicode="&#xb0;" horiz-adv-x="819" d="M78 1122q0 68 26.5 128.5t71.5 105.5t105.5 71.5t128.5 26.5t128 -26.5t105 -71.5t71.5 -105.5t26.5 -128.5t-26.5 -128t-71.5 -105t-105.5 -71.5t-127.5 -26.5q-68 0 -128.5 26.5t-105.5 71.5t-71.5 105t-26.5 128zM242 1122q0 -70 49 -119t119 -49t119 49.5t49 118.5 q0 70 -49.5 119t-118.5 49q-70 0 -119 -49t-49 -119z" />
<glyph unicode="&#xb1;" horiz-adv-x="1228" d="M96 0v213h1037v-213h-1037zM96 553v213h412v270h213v-270h412v-213h-412v-270h-213v270h-412z" />
<glyph unicode="&#xb2;" horiz-adv-x="692" d="M57 578v153l68 70q35 37 81 82t88 94t71.5 99t29.5 95q0 47 -33.5 77t-91.5 30q-43 0 -95 -21.5t-87 -46.5l-16 195q74 20 138 34.5t136 14.5q123 0 203 -65.5t80 -176.5q0 -68 -34 -135t-80 -127.5t-95 -109.5t-82 -78l-21 -21h318v-163h-578z" />
<glyph unicode="&#xb3;" horiz-adv-x="692" d="M53 606l10 172q74 -27 109 -36t74 -9q47 0 77.5 12.5t49 29t26 35.5t7.5 32q0 35 -15.5 55.5t-39 30.5t-52.5 13t-57 3h-66v152q31 0 70 1t74.5 10t60.5 27.5t25 51.5q0 51 -43.5 77.5t-96.5 26.5q-47 0 -92 -14t-90 -29l-10 168q78 20 142.5 29.5t143.5 9.5 q45 0 92.5 -13.5t86.5 -41t63.5 -71.5t24.5 -105q0 -78 -56.5 -123t-128.5 -68v-4q37 -4 73 -18.5t63.5 -40t44 -63.5t16.5 -91q0 -70 -36 -117t-90 -75.5t-118.5 -41t-120.5 -12.5q-20 0 -50.5 3t-63.5 8.5t-61.5 12.5t-45.5 13z" />
<glyph unicode="&#xb4;" horiz-adv-x="454" d="M68 1188l110 299h283l-205 -299h-188z" />
<glyph unicode="&#xb5;" horiz-adv-x="1138" d="M113 -442v1509h323v-657q0 -100 38 -134t87 -34q78 0 109.5 61.5t31.5 165.5v598h324v-844q0 -78 2 -130t6 -93h-295q-4 35 -6 80t-2 98h-4q-14 -35 -35.5 -69.5t-50.5 -62.5t-64.5 -45t-76.5 -17q-68 0 -88 45h-4v-471h-295z" />
<glyph unicode="&#xb6;" horiz-adv-x="1269" d="M86 1057q0 119 37 191.5t102.5 112.5t155.5 54.5t197 14.5h518v-1684h-213v1520h-217v-1520h-213v952q-76 0 -142.5 26t-117 73t-79 112.5t-28.5 147.5z" />
<glyph unicode="&#xb7;" horiz-adv-x="532" d="M109 569q0 70 43 114t114 44q72 0 115 -44t43 -114t-43 -113.5t-115 -43.5t-114.5 44t-42.5 113z" />
<glyph unicode="&#xb8;" horiz-adv-x="454" d="M0 -412l39 95q14 -6 50 -20.5t95 -14.5q47 0 76 19.5t29 66.5q0 29 -26.5 48t-61.5 19q-31 0 -47.5 -5t-28.5 -11l-45 37l110 192h111l-78 -129q31 10 70 11q76 0 124 -44.5t48 -119.5q0 -47 -21.5 -82t-57.5 -58.5t-80 -35t-87 -11.5q-72 0 -137.5 15.5t-81.5 27.5z" />
<glyph unicode="&#xb9;" horiz-adv-x="692" d="M35 1245l260 201h184v-868h-227v634l-117 -106z" />
<glyph unicode="&#xba;" horiz-adv-x="757" d="M51 1135q0 139 84 229t244 90q162 0 245 -90t83 -229q0 -147 -83 -239.5t-245 -92.5q-160 0 -244 92t-84 240zM272 1135q0 -92 27 -144.5t80 -52.5t79.5 52t26.5 145q0 86 -26.5 135t-79.5 49t-80 -49t-27 -135z" />
<glyph unicode="&#xbb;" d="M113 109l184 423l-184 424h256l202 -424l-202 -423h-256zM532 109l185 423l-185 424h256l203 -424l-203 -423h-256z" />
<glyph unicode="&#xbc;" horiz-adv-x="1593" d="M35 1245l260 201h184v-868h-227v634l-117 -106zM346 -68l645 1565h185l-646 -1565h-184zM862 156v186l314 526h249v-561h86v-151h-86v-156h-221v156h-342zM1026 307h186v340h-4z" />
<glyph unicode="&#xbd;" horiz-adv-x="1593" d="M35 1245l260 201h184v-868h-227v634l-117 -106zM309 -68l645 1565h185l-645 -1565h-185zM934 0v154l67 69q35 37 81 82t88 94.5t72 99.5t30 95q0 47 -34 76.5t-91 29.5q-43 0 -95.5 -21.5t-86.5 -45.5l-17 194q74 20 138.5 35t136.5 15q123 0 202.5 -66t79.5 -176 q0 -68 -33.5 -135.5t-79.5 -128t-95.5 -109.5t-82.5 -78l-20 -20h317v-164h-577z" />
<glyph unicode="&#xbe;" horiz-adv-x="1593" d="M53 606l10 172q74 -27 109 -36t74 -9q47 0 77.5 12.5t49 29t26 35.5t7.5 32q0 35 -15.5 55.5t-39 30.5t-52.5 13t-57 3h-66v152q31 0 70 1t74.5 10t60.5 27.5t25 51.5q0 51 -43.5 77.5t-96.5 26.5q-47 0 -92 -14t-90 -29l-10 168q78 20 142.5 29.5t143.5 9.5 q45 0 92.5 -13.5t86.5 -41t63.5 -71.5t24.5 -105q0 -78 -56.5 -123t-128.5 -68v-4q37 -4 73 -18.5t63.5 -40t44 -63.5t16.5 -91q0 -70 -36 -117t-90 -75.5t-118.5 -41t-120.5 -12.5q-20 0 -50.5 3t-63.5 8.5t-61.5 12.5t-45.5 13zM383 -68l645 1565h184l-645 -1565h-184z M862 156v186l314 526h249v-561h86v-151h-86v-156h-221v156h-342zM1026 307h186v340h-4z" />
<glyph unicode="&#xbf;" horiz-adv-x="948" d="M57 -20q0 104 43 188t95.5 154.5t95.5 132t43 123.5v32h274v-69q0 -72 -33.5 -129.5t-73.5 -113.5t-74 -116.5t-34 -138.5q0 -92 52.5 -132t146.5 -40q100 0 156.5 24.5t85.5 41.5l12 -265q-39 -16 -128 -37.5t-204 -21.5q-94 0 -177 20.5t-145.5 64.5t-98.5 113.5 t-36 168.5zM326 760v307h295v-307h-295z" />
<glyph unicode="&#xc0;" horiz-adv-x="1327" d="M12 0l475 1430h369l459 -1430h-344l-88 319h-449l-98 -319h-324zM430 1819h282l111 -299h-188zM496 561h321l-147 594h-4z" />
<glyph unicode="&#xc1;" horiz-adv-x="1327" d="M12 0l475 1430h369l459 -1430h-344l-88 319h-449l-98 -319h-324zM496 561h321l-147 594h-4zM504 1520l110 299h283l-205 -299h-188z" />
<glyph unicode="&#xc2;" horiz-adv-x="1327" d="M12 0l475 1430h369l459 -1430h-344l-88 319h-449l-98 -319h-324zM358 1520l158 299h295l157 -299h-204l-101 176l-100 -176h-205zM496 561h321l-147 594h-4z" />
<glyph unicode="&#xc3;" horiz-adv-x="1327" d="M12 0l475 1430h369l459 -1430h-344l-88 319h-449l-98 -319h-324zM342 1549q2 43 15 88t38 80.5t59.5 58t81.5 22.5q41 0 76 -11t64.5 -25.5t55.5 -25.5t46 -11q31 0 41 25.5t14 47.5h152q0 -6 -4 -45t-23.5 -85t-58.5 -82.5t-109 -36.5q-35 0 -69.5 11t-66.5 25.5 t-59.5 25.5t-45.5 11q-16 0 -26.5 -9t-17 -21.5t-9.5 -24.5t-3 -18h-151zM496 561h321l-147 594h-4z" />
<glyph unicode="&#xc4;" horiz-adv-x="1327" d="M12 0l475 1430h369l459 -1430h-344l-88 319h-449l-98 -319h-324zM366 1556v258h242v-258h-242zM496 561h321l-147 594h-4zM719 1556v258h241v-258h-241z" />
<glyph unicode="&#xc5;" horiz-adv-x="1327" d="M12 0l475 1430h369l459 -1430h-344l-88 319h-449l-98 -319h-324zM436 1716q0 47 18.5 88t49 72t71.5 49.5t88 18.5t88 -18.5t72 -49.5t49.5 -71.5t18.5 -88.5q0 -47 -18.5 -88t-49.5 -71.5t-72 -49t-88 -18.5t-88 18.5t-71.5 49t-49 71.5t-18.5 88zM496 561h321l-147 594 h-4zM547 1716q0 -47 34.5 -81.5t81.5 -34.5t82 34.5t35 81.5t-35 82t-82 35t-81.5 -35t-34.5 -82z" />
<glyph unicode="&#xc6;" horiz-adv-x="1781" d="M12 0l654 1430h1001v-250h-467v-320h438v-250h-438v-360h488v-250h-803v319h-387l-133 -319h-353zM598 561h287v647h-4z" />
<glyph unicode="&#xc7;" horiz-adv-x="1175" d="M94 721q0 197 59.5 336t152.5 227t208 129t223 41q160 0 248 -26.5t129 -43.5l-16 -278q-39 23 -106.5 52.5t-184.5 29.5q-84 0 -152.5 -33t-117 -94.5t-74 -148.5t-25.5 -195q0 -104 29 -190.5t79 -148t118.5 -95t148.5 -33.5q61 0 110.5 10t85 22.5t60.5 24.5t37 19 l12 -299q-43 -14 -132 -33t-226 -19h-27l-55 -90q31 10 70 11q76 0 124 -44.5t48 -119.5q0 -47 -21.5 -82t-57.5 -58.5t-80 -35t-87 -11.5q-72 0 -137.5 15.5t-81.5 27.5l39 95q14 -6 50 -20.5t95 -14.5q47 0 75.5 19.5t28.5 66.5q0 29 -26.5 48t-61.5 19q-31 0 -47 -5 t-28 -11l-45 37l96 166q-121 23 -219.5 83t-169 154t-109.5 220t-39 276z" />
<glyph unicode="&#xc8;" horiz-adv-x="1062" d="M135 0v1430h826v-250h-502v-320h477v-250h-477v-360h526v-250h-850zM299 1819h282l111 -299h-188z" />
<glyph unicode="&#xc9;" horiz-adv-x="1062" d="M135 0v1430h826v-250h-502v-320h477v-250h-477v-360h526v-250h-850zM373 1520l110 299h283l-205 -299h-188z" />
<glyph unicode="&#xca;" horiz-adv-x="1062" d="M135 0v1430h826v-250h-502v-320h477v-250h-477v-360h526v-250h-850zM227 1520l158 299h295l157 -299h-204l-101 176l-100 -176h-205z" />
<glyph unicode="&#xcb;" horiz-adv-x="1062" d="M135 0v1430h826v-250h-502v-320h477v-250h-477v-360h526v-250h-850zM235 1556v258h242v-258h-242zM588 1556v258h241v-258h-241z" />
<glyph unicode="&#xcc;" horiz-adv-x="606" d="M70 1819h282l111 -299h-188zM135 0v1430h336v-1430h-336z" />
<glyph unicode="&#xcd;" horiz-adv-x="606" d="M135 0v1430h336v-1430h-336zM144 1520l110 299h283l-205 -299h-188z" />
<glyph unicode="&#xce;" horiz-adv-x="606" d="M-2 1520l158 299h295l157 -299h-204l-101 176l-100 -176h-205zM135 0v1430h336v-1430h-336z" />
<glyph unicode="&#xcf;" horiz-adv-x="606" d="M6 1556v258h242v-258h-242zM135 0v1430h336v-1430h-336zM359 1556v258h241v-258h-241z" />
<glyph unicode="&#xd0;" horiz-adv-x="1366" d="M0 614v234h135v582h508q121 0 235.5 -38t205 -124t144.5 -224.5t54 -341.5q0 -184 -56.5 -317t-149.5 -219t-217 -126t-259 -40h-465v614h-135zM471 250h107q92 0 158.5 33.5t109.5 94t63.5 143.5t20.5 181q0 221 -89 349.5t-284 128.5h-86v-332h209v-234h-209v-364z" />
<glyph unicode="&#xd1;" horiz-adv-x="1366" d="M129 0v1430h393l416 -992h4v992h295v-1430h-397l-412 1034h-4v-1034h-295zM363 1549q2 43 15 88t38 80.5t59.5 58t81.5 22.5q41 0 76 -11t64.5 -25.5t55.5 -25.5t46 -11q31 0 41 25.5t14 47.5h152q0 -6 -4 -45t-23.5 -85t-58.5 -82.5t-109 -36.5q-35 0 -69.5 11 t-66.5 25.5t-59.5 25.5t-45.5 11q-16 0 -26.5 -9t-17 -21.5t-9.5 -24.5t-3 -18h-151z" />
<glyph unicode="&#xd2;" horiz-adv-x="1402" d="M94 715q0 158 37 293t111.5 234t189.5 155.5t268 56.5q154 0 268.5 -56.5t190.5 -155.5t113 -234.5t37 -292.5q0 -158 -37 -293t-113 -234.5t-190.5 -156t-268.5 -56.5t-268.5 56.5t-189 156t-111.5 234.5t-37 293zM438 715q0 -102 13.5 -193.5t44 -159t81 -106.5 t123.5 -39q74 0 124 39t81 106.5t45.5 158.5t14.5 194q0 102 -14.5 193t-45.5 159t-81 106.5t-124 38.5t-124 -38.5t-80.5 -106.5t-44 -159t-13.5 -193zM469 1819h282l111 -299h-188z" />
<glyph unicode="&#xd3;" horiz-adv-x="1402" d="M94 715q0 158 37 293t111.5 234t189.5 155.5t268 56.5q154 0 268.5 -56.5t190.5 -155.5t113 -234.5t37 -292.5q0 -158 -37 -293t-113 -234.5t-190.5 -156t-268.5 -56.5t-268.5 56.5t-189 156t-111.5 234.5t-37 293zM438 715q0 -102 13.5 -193.5t44 -159t81 -106.5 t123.5 -39q74 0 124 39t81 106.5t45.5 158.5t14.5 194q0 102 -14.5 193t-45.5 159t-81 106.5t-124 38.5t-124 -38.5t-80.5 -106.5t-44 -159t-13.5 -193zM543 1520l110 299h283l-205 -299h-188z" />
<glyph unicode="&#xd4;" horiz-adv-x="1402" d="M94 715q0 158 37 293t111.5 234t189.5 155.5t268 56.5q154 0 268.5 -56.5t190.5 -155.5t113 -234.5t37 -292.5q0 -158 -37 -293t-113 -234.5t-190.5 -156t-268.5 -56.5t-268.5 56.5t-189 156t-111.5 234.5t-37 293zM397 1520l158 299h295l157 -299h-204l-101 176 l-100 -176h-205zM438 715q0 -102 13.5 -193.5t44 -159t81 -106.5t123.5 -39q74 0 124 39t81 106.5t45.5 158.5t14.5 194q0 102 -14.5 193t-45.5 159t-81 106.5t-124 38.5t-124 -38.5t-80.5 -106.5t-44 -159t-13.5 -193z" />
<glyph unicode="&#xd5;" horiz-adv-x="1402" d="M94 715q0 158 37 293t111.5 234t189.5 155.5t268 56.5q154 0 268.5 -56.5t190.5 -155.5t113 -234.5t37 -292.5q0 -158 -37 -293t-113 -234.5t-190.5 -156t-268.5 -56.5t-268.5 56.5t-189 156t-111.5 234.5t-37 293zM381 1549q2 43 15 88t38 80.5t59.5 58t81.5 22.5 q41 0 76 -11t64.5 -25.5t55.5 -25.5t46 -11q31 0 41 25.5t14 47.5h152q0 -6 -4 -45t-23.5 -85t-58.5 -82.5t-109 -36.5q-35 0 -69.5 11t-66.5 25.5t-59.5 25.5t-45.5 11q-16 0 -26.5 -9t-17 -21.5t-9.5 -24.5t-3 -18h-151zM438 715q0 -102 13.5 -193.5t44 -159t81 -106.5 t123.5 -39q74 0 124 39t81 106.5t45.5 158.5t14.5 194q0 102 -14.5 193t-45.5 159t-81 106.5t-124 38.5t-124 -38.5t-80.5 -106.5t-44 -159t-13.5 -193z" />
<glyph unicode="&#xd6;" horiz-adv-x="1402" d="M94 715q0 158 37 293t111.5 234t189.5 155.5t268 56.5q154 0 268.5 -56.5t190.5 -155.5t113 -234.5t37 -292.5q0 -158 -37 -293t-113 -234.5t-190.5 -156t-268.5 -56.5t-268.5 56.5t-189 156t-111.5 234.5t-37 293zM405 1556v258h242v-258h-242zM438 715 q0 -102 13.5 -193.5t44 -159t81 -106.5t123.5 -39q74 0 124 39t81 106.5t45.5 158.5t14.5 194q0 102 -14.5 193t-45.5 159t-81 106.5t-124 38.5t-124 -38.5t-80.5 -106.5t-44 -159t-13.5 -193zM758 1556v258h241v-258h-241z" />
<glyph unicode="&#xd7;" horiz-adv-x="1228" d="M133 188l332 330l-332 330l152 151l329 -331l330 331l152 -151l-330 -330l330 -330l-152 -151l-330 330l-329 -330z" />
<glyph unicode="&#xd8;" horiz-adv-x="1402" d="M78 29l147 186q-66 98 -98.5 225t-32.5 275q0 158 37 293t111.5 234t189.5 155.5t268 56.5q129 0 227.5 -38t170.5 -107l133 166l94 -74l-147 -187q66 -98 98.5 -225t32.5 -274q0 -158 -37 -293t-113 -234.5t-190.5 -156t-268.5 -56.5q-127 0 -225 38t-170 108l-133 -166 zM438 715q0 -57 4 -110.5t13 -100.5l450 561q-29 68 -80 107.5t-125 39.5t-124 -38.5t-80.5 -106.5t-44 -159t-13.5 -193zM498 362q31 -68 81 -106.5t121 -38.5q74 0 124 39t81 106.5t45.5 158.5t14.5 194q0 117 -19 211z" />
<glyph unicode="&#xd9;" horiz-adv-x="1290" d="M121 518v912h336v-965q0 -109 43 -170.5t145 -61.5t145.5 61.5t43.5 170.5v965h335v-912q0 -266 -141 -404.5t-383 -138.5t-383 138.5t-141 404.5zM412 1819h282l111 -299h-188z" />
<glyph unicode="&#xda;" horiz-adv-x="1290" d="M121 518v912h336v-965q0 -109 43 -170.5t145 -61.5t145.5 61.5t43.5 170.5v965h335v-912q0 -266 -141 -404.5t-383 -138.5t-383 138.5t-141 404.5zM486 1520l110 299h283l-205 -299h-188z" />
<glyph unicode="&#xdb;" horiz-adv-x="1290" d="M121 518v912h336v-965q0 -109 43 -170.5t145 -61.5t145.5 61.5t43.5 170.5v965h335v-912q0 -266 -141 -404.5t-383 -138.5t-383 138.5t-141 404.5zM340 1520l158 299h295l157 -299h-204l-101 176l-100 -176h-205z" />
<glyph unicode="&#xdc;" horiz-adv-x="1290" d="M121 518v912h336v-965q0 -109 43 -170.5t145 -61.5t145.5 61.5t43.5 170.5v965h335v-912q0 -266 -141 -404.5t-383 -138.5t-383 138.5t-141 404.5zM348 1556v258h242v-258h-242zM701 1556v258h241v-258h-241z" />
<glyph unicode="&#xdd;" horiz-adv-x="1212" d="M4 1430h385l229 -553l213 553h377l-434 -889v-541h-336v547zM447 1520l110 299h283l-205 -299h-188z" />
<glyph unicode="&#xde;" horiz-adv-x="1138" d="M135 0v1430h336v-173h121q229 0 359 -110.5t130 -343.5q0 -92 -25.5 -174t-80.5 -143.5t-140 -98.5t-202 -37h-162v-350h-336zM459 600h106q78 0 129 52.5t51 152.5q0 106 -49 154.5t-149 48.5h-88v-408z" />
<glyph unicode="&#xdf;" horiz-adv-x="1175" d="M123 0v1104q0 96 28.5 179t88 144.5t148.5 97.5t210 36q150 0 238 -47.5t134 -112t60 -131t14 -105.5q0 -90 -24.5 -154.5t-63 -107.5t-84 -64.5t-86.5 -25.5v-4q156 -23 230 -124t74 -265q0 -74 -20.5 -152t-70 -140t-128 -103t-195.5 -41q-35 0 -79 5t-65 11l13 233 q8 -6 23.5 -11t37.5 -5q72 0 116 57.5t44 174.5q0 63 -10.5 107t-35 70.5t-65.5 40t-102 15.5v233q14 0 46 3.5t63.5 24t56 64.5t24.5 126q0 18 -3 53t-16 68.5t-43 59t-83 25.5q-57 0 -88 -24.5t-45 -66.5t-16.5 -95t-2.5 -109v-1044h-323z" />
<glyph unicode="&#xe0;" horiz-adv-x="1099" d="M70 307q0 90 31.5 150.5t80.5 100.5t109.5 61.5t119 32t108.5 12.5t79 2h98q0 78 -24.5 118.5t-57 60t-65.5 22.5t-51 3q-61 0 -131 -18t-166 -76l-15 240q31 10 73 21.5t87 21.5t93 17t91 7q141 0 230.5 -27.5t140.5 -79.5t70.5 -124t19.5 -162v-389q0 -119 2 -183.5 t6 -117.5h-294l-9 147h-4q-6 -25 -30.5 -53t-63.5 -53t-90 -41t-109 -16q-150 0 -239.5 88t-89.5 235zM318 1487h282l111 -299h-188zM365 328q0 -51 18 -80t42 -42t46.5 -15.5t32.5 -2.5t42 5.5t65.5 30t59 77.5t25.5 152v61q-49 0 -106.5 -4t-107.5 -22.5t-83.5 -55.5 t-33.5 -104z" />
<glyph unicode="&#xe1;" horiz-adv-x="1099" d="M70 307q0 90 31.5 150.5t80.5 100.5t109.5 61.5t119 32t108.5 12.5t79 2h98q0 78 -24.5 118.5t-57 60t-65.5 22.5t-51 3q-61 0 -131 -18t-166 -76l-15 240q31 10 73 21.5t87 21.5t93 17t91 7q141 0 230.5 -27.5t140.5 -79.5t70.5 -124t19.5 -162v-389q0 -119 2 -183.5 t6 -117.5h-294l-9 147h-4q-6 -25 -30.5 -53t-63.5 -53t-90 -41t-109 -16q-150 0 -239.5 88t-89.5 235zM365 328q0 -51 18 -80t42 -42t46.5 -15.5t32.5 -2.5t42 5.5t65.5 30t59 77.5t25.5 152v61q-49 0 -106.5 -4t-107.5 -22.5t-83.5 -55.5t-33.5 -104zM392 1188l110 299h283 l-205 -299h-188z" />
<glyph unicode="&#xe2;" horiz-adv-x="1099" d="M70 307q0 90 31.5 150.5t80.5 100.5t109.5 61.5t119 32t108.5 12.5t79 2h98q0 78 -24.5 118.5t-57 60t-65.5 22.5t-51 3q-61 0 -131 -18t-166 -76l-15 240q31 10 73 21.5t87 21.5t93 17t91 7q141 0 230.5 -27.5t140.5 -79.5t70.5 -124t19.5 -162v-389q0 -119 2 -183.5 t6 -117.5h-294l-9 147h-4q-6 -25 -30.5 -53t-63.5 -53t-90 -41t-109 -16q-150 0 -239.5 88t-89.5 235zM246 1188l158 299h295l157 -299h-204l-101 176l-100 -176h-205zM365 328q0 -51 18 -80t42 -42t46.5 -15.5t32.5 -2.5t42 5.5t65.5 30t59 77.5t25.5 152v61 q-49 0 -106.5 -4t-107.5 -22.5t-83.5 -55.5t-33.5 -104z" />
<glyph unicode="&#xe3;" horiz-adv-x="1099" d="M70 307q0 90 31.5 150.5t80.5 100.5t109.5 61.5t119 32t108.5 12.5t79 2h98q0 78 -24.5 118.5t-57 60t-65.5 22.5t-51 3q-61 0 -131 -18t-166 -76l-15 240q31 10 73 21.5t87 21.5t93 17t91 7q141 0 230.5 -27.5t140.5 -79.5t70.5 -124t19.5 -162v-389q0 -119 2 -183.5 t6 -117.5h-294l-9 147h-4q-6 -25 -30.5 -53t-63.5 -53t-90 -41t-109 -16q-150 0 -239.5 88t-89.5 235zM230 1217q2 43 15 88t38 80.5t59.5 58t81.5 22.5q41 0 76 -11t64.5 -25.5t55.5 -25.5t46 -11q31 0 41 25.5t14 47.5h152q0 -6 -4 -45t-23.5 -85t-58.5 -82.5t-109 -36.5 q-35 0 -69.5 11t-66.5 25.5t-59.5 25.5t-45.5 11q-16 0 -26.5 -9t-17 -21.5t-9.5 -24.5t-3 -18h-151zM365 328q0 -51 18 -80t42 -42t46.5 -15.5t32.5 -2.5t42 5.5t65.5 30t59 77.5t25.5 152v61q-49 0 -106.5 -4t-107.5 -22.5t-83.5 -55.5t-33.5 -104z" />
<glyph unicode="&#xe4;" horiz-adv-x="1099" d="M70 307q0 90 31.5 150.5t80.5 100.5t109.5 61.5t119 32t108.5 12.5t79 2h98q0 78 -24.5 118.5t-57 60t-65.5 22.5t-51 3q-61 0 -131 -18t-166 -76l-15 240q31 10 73 21.5t87 21.5t93 17t91 7q141 0 230.5 -27.5t140.5 -79.5t70.5 -124t19.5 -162v-389q0 -119 2 -183.5 t6 -117.5h-294l-9 147h-4q-6 -25 -30.5 -53t-63.5 -53t-90 -41t-109 -16q-150 0 -239.5 88t-89.5 235zM254 1239v258h242v-258h-242zM365 328q0 -51 18 -80t42 -42t46.5 -15.5t32.5 -2.5t42 5.5t65.5 30t59 77.5t25.5 152v61q-49 0 -106.5 -4t-107.5 -22.5t-83.5 -55.5 t-33.5 -104zM607 1239v258h241v-258h-241z" />
<glyph unicode="&#xe5;" horiz-adv-x="1099" d="M70 307q0 90 31.5 150.5t80.5 100.5t109.5 61.5t119 32t108.5 12.5t79 2h98q0 78 -24.5 118.5t-57 60t-65.5 22.5t-51 3q-61 0 -131 -18t-166 -76l-15 240q31 10 73 21.5t87 21.5t93 17t91 7q141 0 230.5 -27.5t140.5 -79.5t70.5 -124t19.5 -162v-389q0 -119 2 -183.5 t6 -117.5h-294l-9 147h-4q-6 -25 -30.5 -53t-63.5 -53t-90 -41t-109 -16q-150 0 -239.5 88t-89.5 235zM344 1384q0 47 18.5 88t49 72t71.5 49.5t88 18.5t88 -18.5t72 -49.5t49.5 -71.5t18.5 -88.5q0 -47 -18.5 -88t-49.5 -71.5t-72 -49t-88 -18.5t-88 18.5t-71.5 49 t-49 71.5t-18.5 88zM365 328q0 -51 18 -80t42 -42t46.5 -15.5t32.5 -2.5t42 5.5t65.5 30t59 77.5t25.5 152v61q-49 0 -106.5 -4t-107.5 -22.5t-83.5 -55.5t-33.5 -104zM455 1384q0 -47 34.5 -81.5t81.5 -34.5t82 34.5t35 81.5t-35 82t-82 35t-81.5 -35t-34.5 -82z" />
<glyph unicode="&#xe6;" horiz-adv-x="1669" d="M74 307q0 90 31.5 150.5t81 100.5t109.5 61.5t118.5 32t108.5 12.5t79 2h98q0 78 -24.5 118.5t-57 60t-65.5 22.5t-51 3q-61 0 -131 -18t-166 -76l-15 240q31 10 73 21.5t87 21.5t93.5 17t91.5 7q78 0 162.5 -19.5t142.5 -78.5q47 39 119.5 68.5t173.5 29.5q25 0 67.5 -3 t95 -18t105.5 -48t96 -95.5t70.5 -157.5t27.5 -235v-77h-628q0 -47 15 -91.5t48 -78t83 -54t118 -20.5q84 0 163 25.5t138 58.5l6 -244q-78 -29 -166 -45t-172 -16q-57 0 -117.5 8t-117 28.5t-105.5 53t-84 84.5q-27 -47 -65.5 -81t-85.5 -54.5t-99.5 -29.5t-103.5 -9 q-168 0 -258 88t-90 235zM375 328q0 -57 33.5 -98.5t95.5 -41.5q57 0 95 28t60.5 69t31.5 92t9 96v41q-39 0 -95 -4t-107.5 -22.5t-87 -55.5t-35.5 -104zM967 645h333q0 37 -7 81t-25.5 82t-49 62.5t-77.5 24.5q-27 0 -56.5 -11.5t-56.5 -40t-44 -76.5t-17 -122z" />
<glyph unicode="&#xe7;" horiz-adv-x="909" d="M70 522q0 123 34.5 226.5t102 177t166 115.5t225.5 42q80 0 134 -16t124 -35l-16 -244q-45 16 -91.5 31t-97.5 15q-92 0 -142 -43t-72.5 -97.5t-26.5 -104.5t-4 -67q0 -84 23.5 -141t61 -92t85 -49.5t92.5 -14.5q51 0 97 15.5t91 31.5l10 -243q-70 -18 -140.5 -30.5 t-147.5 -14.5l-58 -99q31 10 70 11q76 0 124 -44.5t48 -119.5q0 -47 -21.5 -82t-57.5 -58.5t-80 -35t-87 -11.5q-72 0 -137.5 15.5t-81.5 27.5l39 95q14 -6 50 -20.5t95 -14.5q47 0 76 19.5t29 66.5q0 29 -27 48t-61 19q-31 0 -47.5 -5t-28.5 -11l-45 37l98 170 q-123 18 -201.5 78.5t-124 138.5t-62.5 162t-17 151z" />
<glyph unicode="&#xe8;" horiz-adv-x="1099" d="M86 537q0 109 30.5 207t91 173.5t148.5 120.5t203 45q25 0 68 -3t95 -18t105.5 -48t96.5 -95.5t70.5 -157.5t27.5 -235v-77h-629q0 -47 15.5 -91.5t48 -78t83 -54t117.5 -20.5q84 0 163 25.5t138 58.5l7 -244q-78 -29 -166 -45t-172 -16q-141 0 -242.5 41t-168 113.5 t-98.5 174t-32 224.5zM318 1487h282l111 -299h-188zM393 625h334q0 51 -7 98t-26.5 84t-52.5 58.5t-82 21.5q-61 0 -95 -33t-49.5 -77t-18.5 -87t-3 -65z" />
<glyph unicode="&#xe9;" horiz-adv-x="1099" d="M86 537q0 109 30.5 207t91 173.5t148.5 120.5t203 45q25 0 68 -3t95 -18t105.5 -48t96.5 -95.5t70.5 -157.5t27.5 -235v-77h-629q0 -47 15.5 -91.5t48 -78t83 -54t117.5 -20.5q84 0 163 25.5t138 58.5l7 -244q-78 -29 -166 -45t-172 -16q-141 0 -242.5 41t-168 113.5 t-98.5 174t-32 224.5zM392 1188l110 299h283l-205 -299h-188zM393 625h334q0 51 -7 98t-26.5 84t-52.5 58.5t-82 21.5q-61 0 -95 -33t-49.5 -77t-18.5 -87t-3 -65z" />
<glyph unicode="&#xea;" horiz-adv-x="1099" d="M86 537q0 109 30.5 207t91 173.5t148.5 120.5t203 45q25 0 68 -3t95 -18t105.5 -48t96.5 -95.5t70.5 -157.5t27.5 -235v-77h-629q0 -47 15.5 -91.5t48 -78t83 -54t117.5 -20.5q84 0 163 25.5t138 58.5l7 -244q-78 -29 -166 -45t-172 -16q-141 0 -242.5 41t-168 113.5 t-98.5 174t-32 224.5zM246 1188l158 299h295l157 -299h-204l-101 176l-100 -176h-205zM393 625h334q0 51 -7 98t-26.5 84t-52.5 58.5t-82 21.5q-61 0 -95 -33t-49.5 -77t-18.5 -87t-3 -65z" />
<glyph unicode="&#xeb;" horiz-adv-x="1099" d="M86 537q0 109 30.5 207t91 173.5t148.5 120.5t203 45q25 0 68 -3t95 -18t105.5 -48t96.5 -95.5t70.5 -157.5t27.5 -235v-77h-629q0 -47 15.5 -91.5t48 -78t83 -54t117.5 -20.5q84 0 163 25.5t138 58.5l7 -244q-78 -29 -166 -45t-172 -16q-141 0 -242.5 41t-168 113.5 t-98.5 174t-32 224.5zM254 1239v258h242v-258h-242zM393 625h334q0 51 -7 98t-26.5 84t-52.5 58.5t-82 21.5q-61 0 -95 -33t-49.5 -77t-18.5 -87t-3 -65zM607 1239v258h241v-258h-241z" />
<glyph unicode="&#xec;" horiz-adv-x="569" d="M51 1487h282l111 -299h-188zM123 0v1067h323v-1067h-323z" />
<glyph unicode="&#xed;" horiz-adv-x="569" d="M123 0v1067h323v-1067h-323zM125 1188l110 299h283l-205 -299h-188z" />
<glyph unicode="&#xee;" horiz-adv-x="569" d="M-21 1188l158 299h295l157 -299h-204l-101 176l-100 -176h-205zM123 0v1067h323v-1067h-323z" />
<glyph unicode="&#xef;" horiz-adv-x="569" d="M-13 1239v258h242v-258h-242zM123 0v1067h323v-1067h-323zM340 1239v258h241v-258h-241z" />
<glyph unicode="&#xf0;" horiz-adv-x="1175" d="M86 537q0 121 30.5 221t86 171.5t132.5 112.5t167 41q66 0 123 -33.5t75 -74.5h5q-23 86 -66 155.5t-96 122.5l-224 -106l-112 110l209 99q-43 29 -87 48t-85 34l241 123q47 -12 93.5 -33t93.5 -51l176 84l110 -111l-159 -76q80 -78 135 -171t90 -196.5t50.5 -212 t15.5 -216.5q0 -137 -33 -247t-95.5 -186.5t-156.5 -118.5t-217 -42t-217.5 41t-156.5 114.5t-95 175t-33 222.5zM422 537q0 -158 40 -245t126 -87t126 87t40 245t-40 241.5t-126 83.5t-126 -83.5t-40 -241.5z" />
<glyph unicode="&#xf1;" horiz-adv-x="1138" d="M104 1067h295q4 -35 6.5 -80t2.5 -98h4q37 88 104.5 141t196.5 53q88 0 148.5 -29.5t97 -81.5t52 -123t15.5 -151v-698h-324v657q0 100 -37.5 134t-86.5 34q-78 0 -110 -61.5t-32 -165.5v-598h-323v844q0 78 -2 130t-7 93zM248 1217q2 43 15 88t38 80.5t59.5 58 t81.5 22.5q41 0 76 -11t64.5 -25.5t55.5 -25.5t46 -11q31 0 41 25.5t14 47.5h152q0 -6 -4 -45t-23.5 -85t-58.5 -82.5t-109 -36.5q-35 0 -69.5 11t-66.5 25.5t-59.5 25.5t-45.5 11q-16 0 -26.5 -9t-17 -21.5t-9.5 -24.5t-3 -18h-151z" />
<glyph unicode="&#xf2;" horiz-adv-x="1175" d="M86 537q0 121 33 221t95 171.5t156.5 112.5t217.5 41t217 -41t156.5 -112.5t95.5 -172t33 -220.5q0 -121 -33 -222.5t-95.5 -175t-156.5 -114.5t-217 -41t-217.5 41t-156.5 114.5t-95 175t-33 222.5zM354 1487h282l111 -299h-188zM422 537q0 -158 40 -245t126 -87t126 87 t40 245t-40 241.5t-126 83.5t-126 -83.5t-40 -241.5z" />
<glyph unicode="&#xf3;" horiz-adv-x="1175" d="M86 537q0 121 33 221t95 171.5t156.5 112.5t217.5 41t217 -41t156.5 -112.5t95.5 -172t33 -220.5q0 -121 -33 -222.5t-95.5 -175t-156.5 -114.5t-217 -41t-217.5 41t-156.5 114.5t-95 175t-33 222.5zM422 537q0 -158 40 -245t126 -87t126 87t40 245t-40 241.5t-126 83.5 t-126 -83.5t-40 -241.5zM428 1188l110 299h283l-205 -299h-188z" />
<glyph unicode="&#xf4;" horiz-adv-x="1175" d="M86 537q0 121 33 221t95 171.5t156.5 112.5t217.5 41t217 -41t156.5 -112.5t95.5 -172t33 -220.5q0 -121 -33 -222.5t-95.5 -175t-156.5 -114.5t-217 -41t-217.5 41t-156.5 114.5t-95 175t-33 222.5zM282 1188l158 299h295l157 -299h-204l-101 176l-100 -176h-205z M422 537q0 -158 40 -245t126 -87t126 87t40 245t-40 241.5t-126 83.5t-126 -83.5t-40 -241.5z" />
<glyph unicode="&#xf5;" horiz-adv-x="1175" d="M86 537q0 121 33 221t95 171.5t156.5 112.5t217.5 41t217 -41t156.5 -112.5t95.5 -172t33 -220.5q0 -121 -33 -222.5t-95.5 -175t-156.5 -114.5t-217 -41t-217.5 41t-156.5 114.5t-95 175t-33 222.5zM266 1217q2 43 15 88t38 80.5t59.5 58t81.5 22.5q41 0 76 -11 t64.5 -25.5t55.5 -25.5t46 -11q31 0 41 25.5t14 47.5h152q0 -6 -4 -45t-23.5 -85t-58.5 -82.5t-109 -36.5q-35 0 -69.5 11t-66.5 25.5t-59.5 25.5t-45.5 11q-16 0 -26.5 -9t-17 -21.5t-9.5 -24.5t-3 -18h-151zM422 537q0 -158 40 -245t126 -87t126 87t40 245t-40 241.5 t-126 83.5t-126 -83.5t-40 -241.5z" />
<glyph unicode="&#xf6;" horiz-adv-x="1175" d="M86 537q0 121 33 221t95 171.5t156.5 112.5t217.5 41t217 -41t156.5 -112.5t95.5 -172t33 -220.5q0 -121 -33 -222.5t-95.5 -175t-156.5 -114.5t-217 -41t-217.5 41t-156.5 114.5t-95 175t-33 222.5zM290 1239v258h242v-258h-242zM422 537q0 -158 40 -245t126 -87t126 87 t40 245t-40 241.5t-126 83.5t-126 -83.5t-40 -241.5zM643 1239v258h241v-258h-241z" />
<glyph unicode="&#xf7;" horiz-adv-x="1228" d="M96 412v213h1037v-213h-1037zM457 111q0 70 43 113.5t114 43.5q72 0 115 -44t43 -113q0 -70 -43 -114t-115 -44t-114.5 44t-42.5 114zM457 926q0 70 42.5 113.5t114.5 43.5t115 -44t43 -113q0 -70 -43 -114t-115 -44t-114.5 44t-42.5 114z" />
<glyph unicode="&#xf8;" horiz-adv-x="1175" d="M86 537q0 121 33 221t95 171.5t156.5 112.5t217.5 41q182 0 307 -92l90 115l82 -62l-98 -122q59 -72 90 -170.5t31 -214.5q0 -121 -33 -222.5t-95.5 -175t-156.5 -114.5t-217 -41q-80 0 -155 18t-140 66l-103 -129l-81 61l108 137q-66 76 -98.5 176.5t-32.5 223.5z M422 537q0 -35 2 -68t8 -61l285 358q-41 96 -129 96q-86 0 -126 -84t-40 -241zM467 287q18 -37 48 -59.5t73 -22.5q86 0 126 87t40 245q0 66 -9 104z" />
<glyph unicode="&#xf9;" horiz-adv-x="1138" d="M113 369v698h323v-657q0 -100 38 -134t87 -34q78 0 109.5 61.5t31.5 165.5v598h324v-844q0 -78 2 -130t6 -93h-295q-4 35 -6 80t-2 98h-4q-37 -88 -104.5 -141t-196.5 -53q-88 0 -148.5 30.5t-97.5 83t-52 122t-15 149.5zM336 1487h282l111 -299h-188z" />
<glyph unicode="&#xfa;" horiz-adv-x="1138" d="M113 369v698h323v-657q0 -100 38 -134t87 -34q78 0 109.5 61.5t31.5 165.5v598h324v-844q0 -78 2 -130t6 -93h-295q-4 35 -6 80t-2 98h-4q-37 -88 -104.5 -141t-196.5 -53q-88 0 -148.5 30.5t-97.5 83t-52 122t-15 149.5zM410 1188l110 299h283l-205 -299h-188z" />
<glyph unicode="&#xfb;" horiz-adv-x="1138" d="M113 369v698h323v-657q0 -100 38 -134t87 -34q78 0 109.5 61.5t31.5 165.5v598h324v-844q0 -78 2 -130t6 -93h-295q-4 35 -6 80t-2 98h-4q-37 -88 -104.5 -141t-196.5 -53q-88 0 -148.5 30.5t-97.5 83t-52 122t-15 149.5zM264 1188l158 299h295l157 -299h-204l-101 176 l-100 -176h-205z" />
<glyph unicode="&#xfc;" horiz-adv-x="1138" d="M113 369v698h323v-657q0 -100 38 -134t87 -34q78 0 109.5 61.5t31.5 165.5v598h324v-844q0 -78 2 -130t6 -93h-295q-4 35 -6 80t-2 98h-4q-37 -88 -104.5 -141t-196.5 -53q-88 0 -148.5 30.5t-97.5 83t-52 122t-15 149.5zM272 1239v258h242v-258h-242zM625 1239v258h241 v-258h-241z" />
<glyph unicode="&#xfd;" horiz-adv-x="1062" d="M10 1067h336l199 -723h4l188 723h316l-377 -1165q-59 -188 -148.5 -272.5t-224.5 -84.5q-43 0 -98 7.5t-96 19.5l10 240q16 -10 41.5 -17.5t60.5 -7.5q41 0 71 20.5t50 51t29.5 68.5t9.5 73zM373 1188l110 299h283l-205 -299h-188z" />
<glyph unicode="&#xfe;" horiz-adv-x="1175" d="M113 -442v1978h323v-612h4q4 12 21.5 38.5t50.5 53t83 47t120 20.5q90 0 159.5 -42t117.5 -117.5t73 -182t25 -233.5q0 -106 -20.5 -202.5t-66 -167t-117 -112.5t-171.5 -42q-113 0 -179.5 51t-95.5 123h-4v-600h-323zM436 535q0 -63 7.5 -123t24.5 -106t49 -73.5 t81 -27.5q53 0 85 27.5t47 73.5t19.5 106t4.5 123q0 41 -3 95t-18.5 103t-47.5 83t-87 34q-49 0 -81 -32t-50 -80t-24.5 -102t-6.5 -101z" />
<glyph unicode="&#xff;" horiz-adv-x="1062" d="M10 1067h336l199 -723h4l188 723h316l-377 -1165q-59 -188 -148.5 -272.5t-224.5 -84.5q-43 0 -98 7.5t-96 19.5l10 240q16 -10 41.5 -17.5t60.5 -7.5q41 0 71 20.5t50 51t29.5 68.5t9.5 73zM235 1239v258h242v-258h-242zM588 1239v258h241v-258h-241z" />
<glyph unicode="&#x152;" horiz-adv-x="1781" d="M74 715q0 154 38 287t116.5 232t201.5 155.5t293 56.5q49 0 96 -2t92 -6q47 -4 90 -6t84 -2h605v-250h-480v-320h453v-250h-453v-360h506v-250h-663q-49 0 -96.5 -3t-96.5 -7q-94 -6 -198 -6q-166 0 -278 62.5t-181.5 165.5t-99 234.5t-29.5 268.5zM418 715 q0 -147 24.5 -239.5t64.5 -144.5t92 -70.5t108 -18.5q63 0 102 5t65 13v909q-27 8 -65.5 13.5t-101.5 5.5q-154 0 -221.5 -127t-67.5 -346z" />
<glyph unicode="&#x153;" horiz-adv-x="1781" d="M86 537q0 121 33 221t95 171.5t156.5 112.5t217.5 41q109 0 193.5 -30.5t144.5 -85.5q59 53 135 84.5t172 31.5q25 0 67.5 -3t95 -18t105.5 -48t96 -95.5t71 -157.5t28 -235v-77h-629q0 -47 15.5 -91.5t48 -78t83 -54t117.5 -20.5q84 0 163 25.5t138 58.5l6 -244 q-78 -29 -166 -45t-172 -16q-123 0 -216 30.5t-158 87.5q-59 -57 -144.5 -87.5t-193.5 -30.5q-123 0 -217.5 41t-156.5 114.5t-95 175t-33 222.5zM422 537q0 -158 40 -245t126 -87t126 87t40 245t-40 241.5t-126 83.5t-126 -83.5t-40 -241.5zM1061 625h340q0 51 -7.5 98 t-26.5 84t-53 58.5t-85 21.5q-63 0 -97 -33t-49.5 -77t-18.5 -87t-3 -65z" />
<glyph unicode="&#x178;" horiz-adv-x="1212" d="M4 1430h385l229 -553l213 553h377l-434 -889v-541h-336v547zM309 1556v258h242v-258h-242zM662 1556v258h241v-258h-241z" />
<glyph unicode="&#x2c6;" horiz-adv-x="454" d="M-78 1188l158 299h295l157 -299h-204l-101 176l-100 -176h-205z" />
<glyph unicode="&#x2dc;" horiz-adv-x="454" d="M-94 1217q2 43 15 88t38 80.5t59.5 58t81.5 22.5q41 0 76 -11t64.5 -25.5t55.5 -25.5t46 -11q31 0 41 25.5t14 47.5h152q0 -6 -4 -45t-23.5 -85t-58.5 -82.5t-109 -36.5q-35 0 -69.5 11t-66.5 25.5t-59.5 25.5t-45.5 11q-16 0 -26.5 -9t-17 -21.5t-9.5 -24.5t-3 -18h-151 z" />
<glyph unicode="&#x2000;" horiz-adv-x="972" />
<glyph unicode="&#x2001;" horiz-adv-x="1944" />
<glyph unicode="&#x2002;" horiz-adv-x="972" />
<glyph unicode="&#x2003;" horiz-adv-x="1944" />
<glyph unicode="&#x2004;" horiz-adv-x="648" />
<glyph unicode="&#x2005;" horiz-adv-x="486" />
<glyph unicode="&#x2006;" horiz-adv-x="324" />
<glyph unicode="&#x2007;" horiz-adv-x="324" />
<glyph unicode="&#x2008;" horiz-adv-x="243" />
<glyph unicode="&#x2009;" horiz-adv-x="388" />
<glyph unicode="&#x200a;" horiz-adv-x="108" />
<glyph unicode="&#x2010;" horiz-adv-x="681" d="M86 463v250h510v-250h-510z" />
<glyph unicode="&#x2011;" horiz-adv-x="681" d="M86 463v250h510v-250h-510z" />
<glyph unicode="&#x2012;" horiz-adv-x="681" d="M86 463v250h510v-250h-510z" />
<glyph unicode="&#x2013;" horiz-adv-x="1024" d="M0 479v221h1024v-221h-1024z" />
<glyph unicode="&#x2014;" horiz-adv-x="2048" d="M0 479v221h2048v-221h-2048z" />
<glyph unicode="&#x2018;" horiz-adv-x="532" d="M63 1004l164 532h242l-98 -532h-308z" />
<glyph unicode="&#x2019;" horiz-adv-x="532" d="M63 1004l99 532h307l-164 -532h-242z" />
<glyph unicode="&#x201a;" horiz-adv-x="532" d="M63 -225l99 532h307l-164 -532h-242z" />
<glyph unicode="&#x201c;" d="M131 1004l164 532h242l-99 -532h-307zM528 1004l164 532h242l-98 -532h-308z" />
<glyph unicode="&#x201d;" d="M131 1004l98 532h308l-164 -532h-242zM528 1004l99 532h307l-164 -532h-242z" />
<glyph unicode="&#x201e;" d="M131 -225l98 532h308l-164 -532h-242zM528 -225l99 532h307l-164 -532h-242z" />
<glyph unicode="&#x2022;" horiz-adv-x="1024" d="M156 715q0 74 27.5 138.5t76.5 113.5t113.5 76.5t138.5 27.5t139.5 -27.5t113.5 -76.5t76.5 -114t28.5 -138q0 -74 -28.5 -139.5t-76.5 -113.5t-113.5 -77t-139.5 -29t-138.5 29t-113.5 77t-76.5 113.5t-27.5 139.5z" />
<glyph unicode="&#x2026;" horiz-adv-x="2048" d="M195 0v307h294v-307h-294zM877 0v307h294v-307h-294zM1559 0v307h294v-307h-294z" />
<glyph unicode="&#x202f;" horiz-adv-x="388" />
<glyph unicode="&#x2039;" horiz-adv-x="645" d="M74 532l202 424h256l-184 -424l184 -423h-256z" />
<glyph unicode="&#x203a;" horiz-adv-x="645" d="M113 109l184 423l-184 424h256l202 -424l-202 -423h-256z" />
<glyph unicode="&#x205f;" horiz-adv-x="486" />
<glyph unicode="&#x2122;" horiz-adv-x="2048" d="M98 1266v164h693v-164h-240v-688h-213v688h-240zM954 578v852h295l203 -533l203 533h295v-852h-197v602h-4l-221 -602h-152l-221 602h-4v-602h-197z" />
<glyph unicode="&#x25fc;" d="M0 0v1065h1065v-1065h-1065z" />
<glyph unicode="&#xfb01;" horiz-adv-x="1290" d="M18 840v227h187v174q0 63 14 121.5t52 102.5t102.5 70t165.5 26q86 0 135 -10.5t76 -14.5l-9 -225q-37 16 -84 16q-72 0 -100.5 -30.5t-28.5 -114.5v-115h195v-227h-195v-840h-323v840h-187zM827 0v1067h324v-1067h-324zM827 1249v287h324v-287h-324z" />
<glyph unicode="&#xfb02;" horiz-adv-x="1290" d="M18 840v227h187v174q0 63 14 121.5t52 102.5t102.5 70t165.5 26q86 0 135 -10.5t76 -14.5l-9 -225q-37 16 -84 16q-72 0 -100.5 -30.5t-28.5 -114.5v-115h195v-227h-195v-840h-323v840h-187zM827 0v1536h324v-1536h-324z" />
</font>
</defs>
</svg>
